<svg xmlns="http://www.w3.org/2000/svg" xmlns:xlink="http://www.w3.org/1999/xlink" width="100%" height="100%" fill-rule="evenodd" stroke-linejoin="round" stroke-miterlimit="1.414" clip-rule="evenodd" version="1.1" viewBox="0 0 1280 720" xml:space="preserve"><g><path fill="url(#_Linear1)" fill-rule="nonzero" d="M577.3,230.306c32,0 52.6,-16.2 52.6,-39.2c0,-20 -17.6,-30.6 -31.2,-32c14.8,-2.6 29.2,-13.6 29.2,-30.4c0,-22.2 -19.2,-36.2 -50.4,-36.2c-23.4,0 -40.2,9 -51,21.2l14.2,17.8c9.4,-9 21,-13.8 33.8,-13.8c14,0 24.8,5.2 24.8,15.8c0,9.8 -9.8,14.2 -24.6,14.2c-5,0 -14.2,0 -16.6,-0.2l0,25.6c2,-0.2 11,-0.4 16.6,-0.4c18.6,0 26.8,4.8 26.8,15.4c0,10 -9,17 -25.2,17c-13,0 -27.6,-5.6 -36.8,-15.2l-14.8,19c9.8,12 28,21.4 52.6,21.4Z"/><path fill="url(#_Linear2)" fill-rule="nonzero" d="M700.1,230.306c38,0 55.2,-34.6 55.2,-69c0,-34.4 -17.2,-68.8 -55.2,-68.8c-38.2,0 -55.2,34.4 -55.2,68.8c0,34.4 17,69 55.2,69Zm0,-25.2c-19.2,0 -26.4,-19.2 -26.4,-43.8c0,-24.6 7.2,-43.6 26.4,-43.6c19,0 26.2,19 26.2,43.6c0,24.6 -7.2,43.8 -26.2,43.8Z"/></g><g><path fill="url(#_Linear3)" fill-rule="nonzero" d="M626.248,334.527c9.696,0 16.752,-6.912 16.752,-16.56c0,-9.648 -7.056,-16.56 -16.752,-16.56c-9.648,0 -16.704,6.912 -16.704,16.56c0,9.648 7.056,16.56 16.704,16.56Zm0,-6.048c-5.904,0 -9.696,-4.56 -9.696,-10.512c0,-6 3.792,-10.512 9.696,-10.512c5.904,0 9.744,4.512 9.744,10.512c0,5.952 -3.84,10.512 -9.744,10.512Z"/><path fill="url(#_Linear4)" fill-rule="nonzero" d="M654.616,333.951l0,-13.248l15.504,0l0,-6l-15.504,0l0,-6.768l15.84,0l0,-6l-22.656,0l0,32.016l6.816,0Z"/></g><g><path fill="url(#_Linear5)" fill-rule="nonzero" d="M539.392,275.5c8.906,0 13.21,-4.552 13.21,-10.588c0,-12.319 -18.949,-8.806 -18.949,-14.051c0,-1.979 1.682,-3.315 4.7,-3.315c3.364,0 6.927,1.138 9.598,3.612l3.909,-5.145c-3.266,-3.018 -7.619,-4.601 -12.864,-4.601c-7.767,0 -12.517,4.551 -12.517,10.043c0,12.418 18.999,8.411 18.999,14.249c0,1.88 -1.881,3.661 -5.74,3.661c-4.551,0 -8.163,-2.028 -10.488,-4.453l-3.81,5.344c3.067,3.117 7.619,5.244 13.952,5.244Z"/><path fill="url(#_Linear6)" fill-rule="nonzero" d="M580.704,274.906l0,-6.184l-16.327,0l0,-7.471l15.981,0l0,-6.184l-15.981,0l0,-6.976l16.327,0l0,-6.185l-23.352,0l0,33l23.352,0Z"/><path fill="url(#_Linear7)" fill-rule="nonzero" d="M602.176,275.5c7.273,0 11.429,-4.007 13.804,-8.114l-6.036,-2.919c-1.386,2.721 -4.354,4.799 -7.768,4.799c-5.986,0 -10.34,-4.601 -10.34,-10.835c0,-6.234 4.354,-10.835 10.34,-10.835c3.414,0 6.382,2.127 7.768,4.799l6.036,-2.968c-2.326,-4.107 -6.531,-8.065 -13.804,-8.065c-9.895,0 -17.564,6.927 -17.564,17.069c0,10.142 7.669,17.069 17.564,17.069Z"/><path fill="url(#_Linear8)" fill-rule="nonzero" d="M635.819,275.5c9.994,0 17.267,-7.124 17.267,-17.069c0,-9.944 -7.273,-17.069 -17.267,-17.069c-9.944,0 -17.217,7.125 -17.217,17.069c0,9.945 7.273,17.069 17.217,17.069Zm0,-6.234c-6.085,0 -9.994,-4.7 -9.994,-10.835c0,-6.184 3.909,-10.835 9.994,-10.835c6.086,0 10.044,4.651 10.044,10.835c0,6.135 -3.958,10.835 -10.044,10.835Z"/><path fill="url(#_Linear9)" fill-rule="nonzero" d="M687.57,274.906l0,-33l-7.025,0l0,20.73l-15.288,-20.73l-7.223,0l0,33l7.025,0l0,-21.521l15.733,21.521l6.778,0Z"/><path fill="url(#_Linear10)" fill-rule="nonzero" d="M707.113,274.906c10.341,0 17.514,-6.53 17.514,-16.475c0,-9.944 -7.173,-16.525 -17.514,-16.525l-13.012,0l0,33l13.012,0Zm0,-6.184l-5.986,0l0,-20.631l5.986,0c6.778,0 10.341,4.502 10.341,10.34c0,5.591 -3.81,10.291 -10.341,10.291Z"/><path fill="url(#_Linear11)" fill-rule="nonzero" d="M741.35,275.5c8.906,0 13.21,-4.552 13.21,-10.588c0,-12.319 -18.949,-8.806 -18.949,-14.051c0,-1.979 1.682,-3.315 4.7,-3.315c3.364,0 6.927,1.138 9.598,3.612l3.909,-5.145c-3.266,-3.018 -7.619,-4.601 -12.864,-4.601c-7.767,0 -12.517,4.551 -12.517,10.043c0,12.418 18.999,8.411 18.999,14.249c0,1.88 -1.881,3.661 -5.74,3.661c-4.551,0 -8.163,-2.028 -10.488,-4.453l-3.81,5.344c3.068,3.117 7.619,5.244 13.952,5.244Z"/></g><g><rect width="7.668" height="36.018" x="484.372" y="551.427" fill="url(#_Linear12)" fill-rule="nonzero"/><path fill="url(#_Linear13)" fill-rule="nonzero" d="M531.406,587.445l0,-36.018l-7.668,0l0,22.626l-16.686,-22.626l-7.884,0l0,36.018l7.668,0l0,-23.49l17.172,23.49l7.398,0Z"/><path fill="url(#_Linear14)" fill-rule="nonzero" d="M554.572,587.445l0,-29.268l10.476,0l0,-6.75l-28.728,0l0,6.75l10.53,0l0,29.268l7.722,0Z"/><path fill="url(#_Linear15)" fill-rule="nonzero" d="M595.45,587.445l0,-6.75l-17.82,0l0,-8.154l17.442,0l0,-6.75l-17.442,0l0,-7.614l17.82,0l0,-6.75l-25.488,0l0,36.018l25.488,0Z"/><path fill="url(#_Linear16)" fill-rule="nonzero" d="M630.604,587.445l-8.1,-13.716c3.888,-0.918 7.884,-4.32 7.884,-10.692c0,-6.696 -4.59,-11.61 -12.096,-11.61l-16.848,0l0,36.018l7.668,0l0,-12.798l5.616,0l7.074,12.798l8.802,0Zm-13.446,-19.548l-8.046,0l0,-9.72l8.046,0c3.078,0 5.4,1.836 5.4,4.86c0,3.024 -2.322,4.86 -5.4,4.86Z"/><path fill="url(#_Linear17)" fill-rule="nonzero" d="M655.336,587.445l13.878,-36.018l-8.748,0l-9.936,27.702l-9.99,-27.702l-8.748,0l13.932,36.018l9.612,0Z"/><rect width="7.668" height="36.018" x="672.562" y="551.427" fill="url(#_Linear18)" fill-rule="nonzero"/><path fill="url(#_Linear19)" fill-rule="nonzero" d="M712.846,587.445l0,-6.75l-17.82,0l0,-8.154l17.442,0l0,-6.75l-17.442,0l0,-7.614l17.82,0l0,-6.75l-25.488,0l0,36.018l25.488,0Z"/><path fill="url(#_Linear20)" fill-rule="nonzero" d="M754.534,587.445l10.26,-36.018l-8.64,0l-6.264,26.028l-6.804,-26.028l-5.994,0l-6.858,26.028l-6.318,-26.028l-8.586,0l10.314,36.018l8.154,0l6.264,-24.732l6.318,24.732l8.154,0Z"/><path fill="url(#_Linear21)" fill-rule="nonzero" d="M781.21,588.093c9.72,0 14.418,-4.968 14.418,-11.556c0,-13.446 -20.682,-9.612 -20.682,-15.336c0,-2.16 1.836,-3.618 5.13,-3.618c3.672,0 7.56,1.242 10.476,3.942l4.266,-5.616c-3.564,-3.294 -8.316,-5.022 -14.04,-5.022c-8.478,0 -13.662,4.968 -13.662,10.962c0,13.554 20.736,9.18 20.736,15.552c0,2.052 -2.052,3.996 -6.264,3.996c-4.968,0 -8.91,-2.214 -11.448,-4.86l-4.158,5.832c3.348,3.402 8.316,5.724 15.228,5.724Z"/></g><path fill="url(#_Linear22)" d="M570.555,385.309c0,-9.244 -7.505,-16.75 -16.75,-16.75l-33.5,0c-9.244,0 -16.75,7.506 -16.75,16.75l0,48.5c0,9.245 7.506,16.75 16.75,16.75l33.5,0c9.245,0 16.75,-7.505 16.75,-16.75l0,-48.5Z"/><path fill="url(#_Linear23)" d="M536.984,428.559l0,-16l200,0l0,16l-90,0l0,93l27,0l0,10l-66,0l0,-10l29,0l0,-93l-100,0Z"/><path fill="url(#_Linear24)" d="M536.85,465.504c5.52,0 10,4.481 10,10c0,5.519 -4.481,10 -10,10l-43,0c-5.519,0 -10,-4.481 -10,-10c0,-0.059 0.001,-0.117 0.002,-0.175c-0.001,-0.059 -0.002,-0.118 -0.002,-0.178l0,-83.795c0,-5.714 4.639,-10.352 10.353,-10.352c5.713,0 10.352,4.638 10.352,10.352l0,74.148l32.295,0Z"/><path fill="url(#_Linear25)" d="M761.66,481.559c-2.878,0 -5.215,2.537 -5.215,5.662l0,15.818c0,1.225 0.359,2.36 0.97,3.287l-30.51,12.692c-2.688,1.118 -4.034,4.395 -3.004,7.313l0.562,1.591c1.03,2.918 4.048,4.38 6.736,3.261l31.451,-13.083l31.45,13.083c2.688,1.119 5.706,-0.343 6.736,-3.261l0.562,-1.591c1.03,-2.918 -0.316,-6.195 -3.004,-7.313l-30.833,-12.827c0.558,-0.901 0.884,-1.986 0.884,-3.152l0,-15.818c0,-3.125 -2.337,-5.662 -5.215,-5.662l-1.57,0Z"/><path fill="url(#_Linear26)" d="M514.361,481.559c-2.879,0 -5.216,2.537 -5.216,5.662l0,15.818c0,1.225 0.36,2.36 0.97,3.287l-30.509,12.692c-2.688,1.118 -4.034,4.395 -3.004,7.313l0.562,1.591c1.03,2.918 4.048,4.38 6.736,3.261l31.45,-13.083l31.451,13.083c2.688,1.119 5.706,-0.343 6.736,-3.261l0.562,-1.591c1.03,-2.918 -0.316,-6.195 -3.004,-7.313l-30.833,-12.827c0.558,-0.901 0.883,-1.986 0.883,-3.152l0,-15.818c0,-3.125 -2.336,-5.662 -5.215,-5.662l-1.569,0Z"/><path fill="url(#_Linear27)" d="M741.15,465.504c-5.52,0 -10,4.481 -10,10c0,5.519 4.481,10 10,10l43,0c5.519,0 10,-4.481 10,-10c0,-0.059 -0.001,-0.117 -0.002,-0.175c0.001,-0.059 0.002,-0.118 0.002,-0.178l0,-83.795c0,-5.714 -4.639,-10.352 -10.353,-10.352c-5.713,0 -10.352,4.638 -10.352,10.352l0,74.148l-32.295,0Z"/><path fill="url(#_Linear28)" d="M503.555,442.559c0,0 4.777,24.069 36,24c31.223,-0.069 30,0 30,0l0,65l38,0l-10,-17l0,-55c0,0 -3.457,-23.068 -28,-21.75c-24.542,1.319 -66,0 -66,0l0,4.75Z"/><path fill="url(#_Linear29)" d="M562.555,302.561l12,40l-12,0c0,0 3.764,13.773 -10,22c-13.764,8.228 -30,1 -30,1c0,0 -11.78,-5.229 -13,-25c-1.22,-19.77 5.795,-36 5.795,-36l47.205,-2Z"/><path fill="url(#_Linear30)" d="M509.555,330.559l0,-34c0,0 6.011,-10.221 12,-10c5.989,0.222 49,0 49,0c0,0 -2.588,11.396 -7,15c-4.412,3.605 -8.67,6.485 -15,7c-6.33,0.516 -24,0 -24,0l-15,22Z"/><path fill="url(#_Linear31)" d="M711.555,385.811c0,-9.244 7.506,-16.75 16.75,-16.75l33.5,0c9.245,0 16.75,7.506 16.75,16.75l0,48.5c0,9.245 -7.505,16.75 -16.75,16.75l-33.5,0c-9.244,0 -16.75,-7.505 -16.75,-16.75l0,-48.5Z"/><path fill="url(#_Linear32)" d="M778.555,442.559c0,0 -4.777,24.069 -36,24c-31.223,-0.069 -30,0 -30,0l0,65l-38,0l10,-17l0,-55c0,0 3.458,-23.068 28,-21.75c24.543,1.319 66,0 66,0l0,4.75Z"/><path fill="url(#_Linear33)" d="M716.413,303.126l-12,40l12,0c0,0 -3.764,13.772 10,22c13.764,8.227 30,1 30,1c0,0 11.78,-5.23 13,-25c1.22,-19.771 -5.796,-36 -5.796,-36l-47.204,-2Z"/><path fill="url(#_Linear34)" d="M769.555,331.061l0,-34c0,0 -6.011,-10.222 -12,-10c-5.989,0.222 -49,0 -49,0c0,0 2.588,11.395 7,15c4.412,3.605 8.67,6.485 15,7c6.33,0.515 24,0 24,0l15,22Z"/><path fill="url(#_Linear35)" d="M639.555,355.74l-19.555,51.26l-49.445,0l-570.555,313l0,-720l639.555,355.74Z"/><path fill="url(#_Linear36)" d="M619.885,404.559l17.116,-47.009c0.52,-1.426 2.099,-2.162 3.525,-1.643l5.168,1.882c1.426,0.519 2.163,2.098 1.643,3.525l-17.718,48.661c-0.02,0.055 -0.041,0.108 -0.064,0.16l0,0.424c0,1.104 -0.896,2 -2,2l-55,0c-1.104,0 -2,-0.896 -2,-2l0,-4c0,-1.103 0.896,-2 2,-2l47.33,0Z"/><circle cx="604.055" cy="385.65" r="1.5" fill="#e2f9ff" fill-opacity=".5"/><circle cx="583.055" cy="353.24" r="1.5" fill="#e2f9ff" fill-opacity=".5"/><circle cx="618.555" cy="386.15" r="1" fill="#e2f9ff" fill-opacity=".977"/><circle cx="578.555" cy="372.15" r="1" fill="#e2f9ff" fill-opacity=".5"/><circle cx="557.945" cy="391.232" r="1" fill="#e2f9ff" fill-opacity=".158"/><circle cx="615.555" cy="397" r="1" fill="#e2f9ff" fill-opacity=".75"/><circle cx="614.055" cy="368.496" r=".5" fill="#e2f9ff"/><circle cx="579.055" cy="392.732" r=".5" fill="#e2f9ff" fill-opacity=".5"/><circle cx="580.055" cy="367.996" r=".5" fill="#e2f9ff" fill-opacity=".5"/><circle cx="557.945" cy="372.061" r=".5" fill="#e2f9ff" fill-opacity=".174"/><circle cx="595.945" cy="353.74" r=".5" fill="#e2f9ff" fill-opacity=".5"/><circle cx="580.055" cy="330.059" r=".5" fill="#e2f9ff" fill-opacity=".5"/><circle cx="451.756" cy="358.5" r="2.5" fill="url(#_Linear37)"/><circle cx="427.94" cy="237.862" r="2.5" fill="url(#_Linear38)"/><circle cx="488.94" cy="306.559" r="2.5" fill="url(#_Linear39)"/><circle cx="587.055" cy="346.991" r=".5" fill="#b2bbff" fill-opacity=".5"/><circle cx="573.555" cy="326.491" r="1" fill="#b2bbff" fill-opacity=".5"/><circle cx="416.44" cy="318.967" r="1" fill="#b2bbff" fill-opacity=".25"/><circle cx="550.85" cy="354.74" r="1" fill="#b2bbff" fill-opacity=".5"/><circle cx="608.044" cy="358.5" r="1.5" fill="#b2bbff" fill-opacity=".5"/><path fill="#24104c" d="M827.91,177.848c25.013,-14.441 57.045,-5.858 71.486,19.155c14.441,25.013 5.858,57.044 -19.155,71.485c-25.012,14.441 -57.044,5.858 -71.485,-19.154c-14.441,-25.013 -5.858,-57.045 19.154,-71.486Z"/><text x="846.277" y="187.695" fill="url(#_Linear40)" font-family="'Arial-BoldMT', 'Arial', sans-serif" font-size="16.063" font-weight="700">12</text><text x="826.799" y="193.052" fill="url(#_Linear41)" font-family="'Arial-BoldMT', 'Arial', sans-serif" font-size="16.063" font-weight="700">1<tspan x="834.846" y="193.052">1</tspan></text><text x="810.961" y="209.184" fill="url(#_Linear42)" font-family="'Arial-BoldMT', 'Arial', sans-serif" font-size="16.063" font-weight="700">10</text><text x="808.607" y="228.509" fill="url(#_Linear43)" font-family="'Arial-BoldMT', 'Arial', sans-serif" font-size="16.063" font-weight="700">9</text><text x="812.968" y="247.818" fill="url(#_Linear44)" font-family="'Arial-BoldMT', 'Arial', sans-serif" font-size="16.063" font-weight="700">8</text><text x="828.549" y="263.065" fill="url(#_Linear45)" font-family="'Arial-BoldMT', 'Arial', sans-serif" font-size="16.063" font-weight="700">7</text><text x="849.169" y="269.64" fill="url(#_Linear46)" font-family="'Arial-BoldMT', 'Arial', sans-serif" font-size="16.063" font-weight="700">6</text><text x="869.662" y="264.106" fill="url(#_Linear47)" font-family="'Arial-BoldMT', 'Arial', sans-serif" font-size="16.063" font-weight="700">5</text><text x="884.67" y="250.351" fill="url(#_Linear48)" font-family="'Arial-BoldMT', 'Arial', sans-serif" font-size="16.063" font-weight="700">4</text><text x="871.71" y="194.391" fill="url(#_Linear49)" font-family="'Arial-BoldMT', 'Arial', sans-serif" font-size="16.063" font-weight="700">1</text><text x="885.04" y="208.039" fill="url(#_Linear50)" font-family="'Arial-BoldMT', 'Arial', sans-serif" font-size="16.063" font-weight="700">2</text><text x="889.385" y="228.509" fill="url(#_Linear51)" font-family="'Arial-BoldMT', 'Arial', sans-serif" font-size="16.063" font-weight="700">3</text><path fill="url(#_Linear52)" d="M857.823,220.13c-0.554,-0.96 -1.783,-1.289 -2.743,-0.735c-0.96,0.554 -1.289,1.783 -0.735,2.743l14.358,24.869c0.554,0.959 1.783,1.289 2.743,0.735c0.96,-0.554 1.289,-1.783 0.735,-2.743l-14.358,-24.869Z"/><defs><linearGradient id="_Linear1" x1="0" x2="1" y1="0" y2="0" gradientTransform="matrix(8.11212e-15,132.481,-132.481,8.11212e-15,600.978,97)" gradientUnits="userSpaceOnUse"><stop offset="0%" stop-color="#47327d" stop-opacity="1"/><stop offset="100%" stop-color="#9876b6" stop-opacity="1"/></linearGradient><linearGradient id="_Linear2" x1="0" x2="1" y1="0" y2="0" gradientTransform="matrix(8.11212e-15,132.481,-132.481,8.11212e-15,600.978,97)" gradientUnits="userSpaceOnUse"><stop offset="0%" stop-color="#47327d" stop-opacity="1"/><stop offset="100%" stop-color="#9876b6" stop-opacity="1"/></linearGradient><linearGradient id="_Linear3" x1="0" x2="1" y1="0" y2="0" gradientTransform="matrix(5.5364e-15,90.4163,-90.4163,5.5364e-15,688.19,245.109)" gradientUnits="userSpaceOnUse"><stop offset="0%" stop-color="#080015" stop-opacity=".475"/><stop offset="100%" stop-color="#56287f" stop-opacity=".475"/></linearGradient><linearGradient id="_Linear4" x1="0" x2="1" y1="0" y2="0" gradientTransform="matrix(5.5364e-15,90.4163,-90.4163,5.5364e-15,688.19,245.109)" gradientUnits="userSpaceOnUse"><stop offset="0%" stop-color="#080015" stop-opacity=".475"/><stop offset="100%" stop-color="#56287f" stop-opacity=".475"/></linearGradient><linearGradient id="_Linear5" x1="0" x2="1" y1="0" y2="0" gradientTransform="matrix(2.88352e-15,-47.0914,47.0914,2.88352e-15,643,288.453)" gradientUnits="userSpaceOnUse"><stop offset="0%" stop-color="#d8a6ff" stop-opacity="1"/><stop offset="100%" stop-color="#9776bb" stop-opacity="1"/></linearGradient><linearGradient id="_Linear6" x1="0" x2="1" y1="0" y2="0" gradientTransform="matrix(2.88352e-15,-47.0914,47.0914,2.88352e-15,643,288.453)" gradientUnits="userSpaceOnUse"><stop offset="0%" stop-color="#d8a6ff" stop-opacity="1"/><stop offset="100%" stop-color="#9776bb" stop-opacity="1"/></linearGradient><linearGradient id="_Linear7" x1="0" x2="1" y1="0" y2="0" gradientTransform="matrix(2.88352e-15,-47.0914,47.0914,2.88352e-15,643,288.453)" gradientUnits="userSpaceOnUse"><stop offset="0%" stop-color="#d8a6ff" stop-opacity="1"/><stop offset="100%" stop-color="#9776bb" stop-opacity="1"/></linearGradient><linearGradient id="_Linear8" x1="0" x2="1" y1="0" y2="0" gradientTransform="matrix(2.88352e-15,-47.0914,47.0914,2.88352e-15,643,288.453)" gradientUnits="userSpaceOnUse"><stop offset="0%" stop-color="#d8a6ff" stop-opacity="1"/><stop offset="100%" stop-color="#9776bb" stop-opacity="1"/></linearGradient><linearGradient id="_Linear9" x1="0" x2="1" y1="0" y2="0" gradientTransform="matrix(2.88352e-15,-47.0914,47.0914,2.88352e-15,643,288.453)" gradientUnits="userSpaceOnUse"><stop offset="0%" stop-color="#d8a6ff" stop-opacity="1"/><stop offset="100%" stop-color="#9776bb" stop-opacity="1"/></linearGradient><linearGradient id="_Linear10" x1="0" x2="1" y1="0" y2="0" gradientTransform="matrix(2.88352e-15,-47.0914,47.0914,2.88352e-15,643,288.453)" gradientUnits="userSpaceOnUse"><stop offset="0%" stop-color="#d8a6ff" stop-opacity="1"/><stop offset="100%" stop-color="#9776bb" stop-opacity="1"/></linearGradient><linearGradient id="_Linear11" x1="0" x2="1" y1="0" y2="0" gradientTransform="matrix(2.88352e-15,-47.0914,47.0914,2.88352e-15,643,288.453)" gradientUnits="userSpaceOnUse"><stop offset="0%" stop-color="#d8a6ff" stop-opacity="1"/><stop offset="100%" stop-color="#9776bb" stop-opacity="1"/></linearGradient><linearGradient id="_Linear12" x1="0" x2="1" y1="0" y2="0" gradientTransform="matrix(4.99249e-15,81.5336,-81.5336,4.99249e-15,639.555,506.559)" gradientUnits="userSpaceOnUse"><stop offset="0%" stop-color="#8d9ed8" stop-opacity="1"/><stop offset="100%" stop-color="#6c59a8" stop-opacity="1"/></linearGradient><linearGradient id="_Linear13" x1="0" x2="1" y1="0" y2="0" gradientTransform="matrix(4.99249e-15,81.5336,-81.5336,4.99249e-15,639.555,506.559)" gradientUnits="userSpaceOnUse"><stop offset="0%" stop-color="#8d9ed8" stop-opacity="1"/><stop offset="100%" stop-color="#6c59a8" stop-opacity="1"/></linearGradient><linearGradient id="_Linear14" x1="0" x2="1" y1="0" y2="0" gradientTransform="matrix(4.99249e-15,81.5336,-81.5336,4.99249e-15,639.555,506.559)" gradientUnits="userSpaceOnUse"><stop offset="0%" stop-color="#8d9ed8" stop-opacity="1"/><stop offset="100%" stop-color="#6c59a8" stop-opacity="1"/></linearGradient><linearGradient id="_Linear15" x1="0" x2="1" y1="0" y2="0" gradientTransform="matrix(4.99249e-15,81.5336,-81.5336,4.99249e-15,639.555,506.559)" gradientUnits="userSpaceOnUse"><stop offset="0%" stop-color="#8d9ed8" stop-opacity="1"/><stop offset="100%" stop-color="#6c59a8" stop-opacity="1"/></linearGradient><linearGradient id="_Linear16" x1="0" x2="1" y1="0" y2="0" gradientTransform="matrix(4.99249e-15,81.5336,-81.5336,4.99249e-15,639.555,506.559)" gradientUnits="userSpaceOnUse"><stop offset="0%" stop-color="#8d9ed8" stop-opacity="1"/><stop offset="100%" stop-color="#6c59a8" stop-opacity="1"/></linearGradient><linearGradient id="_Linear17" x1="0" x2="1" y1="0" y2="0" gradientTransform="matrix(4.99249e-15,81.5336,-81.5336,4.99249e-15,639.555,506.559)" gradientUnits="userSpaceOnUse"><stop offset="0%" stop-color="#8d9ed8" stop-opacity="1"/><stop offset="100%" stop-color="#6c59a8" stop-opacity="1"/></linearGradient><linearGradient id="_Linear18" x1="0" x2="1" y1="0" y2="0" gradientTransform="matrix(4.99249e-15,81.5336,-81.5336,4.99249e-15,639.555,506.559)" gradientUnits="userSpaceOnUse"><stop offset="0%" stop-color="#8d9ed8" stop-opacity="1"/><stop offset="100%" stop-color="#6c59a8" stop-opacity="1"/></linearGradient><linearGradient id="_Linear19" x1="0" x2="1" y1="0" y2="0" gradientTransform="matrix(4.99249e-15,81.5336,-81.5336,4.99249e-15,639.555,506.559)" gradientUnits="userSpaceOnUse"><stop offset="0%" stop-color="#8d9ed8" stop-opacity="1"/><stop offset="100%" stop-color="#6c59a8" stop-opacity="1"/></linearGradient><linearGradient id="_Linear20" x1="0" x2="1" y1="0" y2="0" gradientTransform="matrix(4.99249e-15,81.5336,-81.5336,4.99249e-15,639.555,506.559)" gradientUnits="userSpaceOnUse"><stop offset="0%" stop-color="#8d9ed8" stop-opacity="1"/><stop offset="100%" stop-color="#6c59a8" stop-opacity="1"/></linearGradient><linearGradient id="_Linear21" x1="0" x2="1" y1="0" y2="0" gradientTransform="matrix(4.99249e-15,81.5336,-81.5336,4.99249e-15,639.555,506.559)" gradientUnits="userSpaceOnUse"><stop offset="0%" stop-color="#8d9ed8" stop-opacity="1"/><stop offset="100%" stop-color="#6c59a8" stop-opacity="1"/></linearGradient><linearGradient id="_Linear22" x1="0" x2="1" y1="0" y2="0" gradientTransform="matrix(-77,48,-48,-77,580.555,392.559)" gradientUnits="userSpaceOnUse"><stop offset="0%" stop-color="#2b134a" stop-opacity="1"/><stop offset="100%" stop-color="#312054" stop-opacity="1"/></linearGradient><linearGradient id="_Linear23" x1="0" x2="1" y1="0" y2="0" gradientTransform="matrix(200,0,0,119,536.984,472.059)" gradientUnits="userSpaceOnUse"><stop offset="0%" stop-color="#2b134a" stop-opacity="1"/><stop offset="100%" stop-color="#312054" stop-opacity="1"/></linearGradient><linearGradient id="_Linear24" x1="0" x2="1" y1="0" y2="0" gradientTransform="matrix(63,0,0,104.5,483.85,433.254)" gradientUnits="userSpaceOnUse"><stop offset="0%" stop-color="#2b134a" stop-opacity="1"/><stop offset="100%" stop-color="#312054" stop-opacity="1"/></linearGradient><linearGradient id="_Linear25" x1="0" x2="1" y1="0" y2="0" gradientTransform="matrix(-78.1891,0,0,50,801.744,506.559)" gradientUnits="userSpaceOnUse"><stop offset="0%" stop-color="#2b134a" stop-opacity="1"/><stop offset="100%" stop-color="#312054" stop-opacity="1"/></linearGradient><linearGradient id="_Linear26" x1="0" x2="1" y1="0" y2="0" gradientTransform="matrix(-78.1891,0,0,50,554.445,506.559)" gradientUnits="userSpaceOnUse"><stop offset="0%" stop-color="#2b134a" stop-opacity="1"/><stop offset="100%" stop-color="#312054" stop-opacity="1"/></linearGradient><linearGradient id="_Linear27" x1="0" x2="1" y1="0" y2="0" gradientTransform="matrix(-63,0,0,104.5,794.15,433.254)" gradientUnits="userSpaceOnUse"><stop offset="0%" stop-color="#2b134a" stop-opacity="1"/><stop offset="100%" stop-color="#312054" stop-opacity="1"/></linearGradient><linearGradient id="_Linear28" x1="0" x2="1" y1="0" y2="0" gradientTransform="matrix(-32,22,-22,-32,598.555,454.559)" gradientUnits="userSpaceOnUse"><stop offset="0%" stop-color="#2b134a" stop-opacity="1"/><stop offset="100%" stop-color="#312054" stop-opacity="1"/></linearGradient><linearGradient id="_Linear29" x1="0" x2="1" y1="0" y2="0" gradientTransform="matrix(65.1425,0,0,65.9353,509.413,335.529)" gradientUnits="userSpaceOnUse"><stop offset="0%" stop-color="#2b134a" stop-opacity="1"/><stop offset="100%" stop-color="#312054" stop-opacity="1"/></linearGradient><linearGradient id="_Linear30" x1="0" x2="1" y1="0" y2="0" gradientTransform="matrix(61,0,0,44.0036,509.555,308.558)" gradientUnits="userSpaceOnUse"><stop offset="0%" stop-color="#431a62" stop-opacity="1"/><stop offset="100%" stop-color="#6b4b8e" stop-opacity="1"/></linearGradient><linearGradient id="_Linear31" x1="0" x2="1" y1="0" y2="0" gradientTransform="matrix(77,48,48,-77,701.555,393.061)" gradientUnits="userSpaceOnUse"><stop offset="0%" stop-color="#2b134a" stop-opacity="1"/><stop offset="100%" stop-color="#312054" stop-opacity="1"/></linearGradient><linearGradient id="_Linear32" x1="0" x2="1" y1="0" y2="0" gradientTransform="matrix(32,22,22,-32,683.555,454.559)" gradientUnits="userSpaceOnUse"><stop offset="0%" stop-color="#2b134a" stop-opacity="1"/><stop offset="100%" stop-color="#312054" stop-opacity="1"/></linearGradient><linearGradient id="_Linear33" x1="0" x2="1" y1="0" y2="0" gradientTransform="matrix(-65.1425,0,0,65.9353,769.555,336.093)" gradientUnits="userSpaceOnUse"><stop offset="0%" stop-color="#2b134a" stop-opacity="1"/><stop offset="100%" stop-color="#312054" stop-opacity="1"/></linearGradient><linearGradient id="_Linear34" x1="0" x2="1" y1="0" y2="0" gradientTransform="matrix(-61,0,0,44.0036,769.555,309.059)" gradientUnits="userSpaceOnUse"><stop offset="0%" stop-color="#431a62" stop-opacity="1"/><stop offset="100%" stop-color="#6b4b8e" stop-opacity="1"/></linearGradient><linearGradient id="_Linear35" x1="0" x2="1" y1="0" y2="0" gradientTransform="matrix(625,82.7429,-82.7429,625,0,301.407)" gradientUnits="userSpaceOnUse"><stop offset="0%" stop-color="#000" stop-opacity="0"/><stop offset="32%" stop-color="#283277" stop-opacity=".02"/><stop offset="62%" stop-color="#06f" stop-opacity=".09"/><stop offset="88%" stop-color="#00fffe" stop-opacity=".169"/><stop offset="100%" stop-color="#b6ffff" stop-opacity=".8"/></linearGradient><linearGradient id="_Linear36" x1="0" x2="1" y1="0" y2="0" gradientTransform="matrix(99.1205,-56.8189,14.3464,392.567,570.555,412.559)" gradientUnits="userSpaceOnUse"><stop offset="0%" stop-color="#513477" stop-opacity="1"/><stop offset="100%" stop-color="#7e69aa" stop-opacity="1"/></linearGradient><linearGradient id="_Linear37" x1="0" x2="1" y1="0" y2="0" gradientTransform="matrix(5,0,0,5,449.256,358.5)" gradientUnits="userSpaceOnUse"><stop offset="0%" stop-color="#3d3670" stop-opacity=".315"/><stop offset="100%" stop-color="#b2bbff" stop-opacity=".315"/></linearGradient><linearGradient id="_Linear38" x1="0" x2="1" y1="0" y2="0" gradientTransform="matrix(-1.94003,2.13793,-2.13793,-1.94003,427.94,237.862)" gradientUnits="userSpaceOnUse"><stop offset="0%" stop-color="#3d3670" stop-opacity=".151"/><stop offset="100%" stop-color="#b2bbff" stop-opacity=".151"/></linearGradient><linearGradient id="_Linear39" x1="0" x2="1" y1="0" y2="0" gradientTransform="matrix(3.44003,1.55933,-1.55933,3.44003,488,305)" gradientUnits="userSpaceOnUse"><stop offset="0%" stop-color="#3d3670" stop-opacity=".5"/><stop offset="100%" stop-color="#b2bbff" stop-opacity=".5"/></linearGradient><linearGradient id="_Linear40" x1="0" x2="1" y1="0" y2="0" gradientTransform="matrix(16.2396,0,0,15.5007,846.277,184.731)" gradientUnits="userSpaceOnUse"><stop offset="0%" stop-color="#431a62" stop-opacity="1"/><stop offset="100%" stop-color="#6b4b8e" stop-opacity="1"/></linearGradient><linearGradient id="_Linear41" x1="0" x2="1" y1="0" y2="0" gradientTransform="matrix(16.2396,0,0,15.5007,826.799,190.088)" gradientUnits="userSpaceOnUse"><stop offset="0%" stop-color="#431a62" stop-opacity="1"/><stop offset="100%" stop-color="#6b4b8e" stop-opacity="1"/></linearGradient><linearGradient id="_Linear42" x1="0" x2="1" y1="0" y2="0" gradientTransform="matrix(16.2396,0,0,15.5007,810.961,206.221)" gradientUnits="userSpaceOnUse"><stop offset="0%" stop-color="#431a62" stop-opacity="1"/><stop offset="100%" stop-color="#6b4b8e" stop-opacity="1"/></linearGradient><linearGradient id="_Linear43" x1="0" x2="1" y1="0" y2="0" gradientTransform="matrix(8.1883,0,0,8.1883,808.607,225.546)" gradientUnits="userSpaceOnUse"><stop offset="0%" stop-color="#431a62" stop-opacity="1"/><stop offset="100%" stop-color="#6b4b8e" stop-opacity="1"/></linearGradient><linearGradient id="_Linear44" x1="0" x2="1" y1="0" y2="0" gradientTransform="matrix(7.16518,0,0,7.16518,812.968,244.854)" gradientUnits="userSpaceOnUse"><stop offset="0%" stop-color="#431a62" stop-opacity="1"/><stop offset="100%" stop-color="#6b4b8e" stop-opacity="1"/></linearGradient><linearGradient id="_Linear45" x1="0" x2="1" y1="0" y2="0" gradientTransform="matrix(8.21968,0,0,8.21968,828.549,260.101)" gradientUnits="userSpaceOnUse"><stop offset="0%" stop-color="#431a62" stop-opacity="1"/><stop offset="100%" stop-color="#6b4b8e" stop-opacity="1"/></linearGradient><linearGradient id="_Linear46" x1="0" x2="1" y1="0" y2="0" gradientTransform="matrix(8.36085,0,0,8.36085,849.169,266.676)" gradientUnits="userSpaceOnUse"><stop offset="0%" stop-color="#431a62" stop-opacity="1"/><stop offset="100%" stop-color="#6b4b8e" stop-opacity="1"/></linearGradient><linearGradient id="_Linear47" x1="0" x2="1" y1="0" y2="0" gradientTransform="matrix(8.44713,0,0,8.44713,869.662,261.143)" gradientUnits="userSpaceOnUse"><stop offset="0%" stop-color="#431a62" stop-opacity="1"/><stop offset="100%" stop-color="#6b4b8e" stop-opacity="1"/></linearGradient><linearGradient id="_Linear48" x1="0" x2="1" y1="0" y2="0" gradientTransform="matrix(8.495,0,0,8.495,884.67,247.387)" gradientUnits="userSpaceOnUse"><stop offset="0%" stop-color="#431a62" stop-opacity="1"/><stop offset="100%" stop-color="#6b4b8e" stop-opacity="1"/></linearGradient><linearGradient id="_Linear49" x1="0" x2="1" y1="0" y2="0" gradientTransform="matrix(8.28968,0,0,8.28968,871.71,191.427)" gradientUnits="userSpaceOnUse"><stop offset="0%" stop-color="#431a62" stop-opacity="1"/><stop offset="100%" stop-color="#6b4b8e" stop-opacity="1"/></linearGradient><linearGradient id="_Linear50" x1="0" x2="1" y1="0" y2="0" gradientTransform="matrix(8.76857,-0.0749975,0.0749975,8.76857,885.04,205.075)" gradientUnits="userSpaceOnUse"><stop offset="0%" stop-color="#431a62" stop-opacity="1"/><stop offset="100%" stop-color="#6b4b8e" stop-opacity="1"/></linearGradient><linearGradient id="_Linear51" x1="0" x2="1" y1="0" y2="0" gradientTransform="matrix(8.2432,0,0,8.2432,889.385,225.546)" gradientUnits="userSpaceOnUse"><stop offset="0%" stop-color="#431a62" stop-opacity="1"/><stop offset="100%" stop-color="#6b4b8e" stop-opacity="1"/></linearGradient><linearGradient id="_Linear52" x1="0" x2="1" y1="0" y2="0" gradientTransform="matrix(13.1511,20.2101,2.67527,10.5417,856.616,220.662)" gradientUnits="userSpaceOnUse"><stop offset="0%" stop-color="#81638f" stop-opacity="1"/><stop offset="100%" stop-color="#440075" stop-opacity="1"/></linearGradient></defs></svg>